# xmcd
#
# Track frame offsets:
#	182
#	13870
#	31262
#	49265
#	64675
#	80105
#	95715
#	110800
#	122995
#	139715
#	152312
#	171137
#
# Disc length: 2540 seconds
#
# Revision: 4
# Processed by: cddbd v1.5.2PL0 Copyright (c) Steve Scherf et al.
# Submitted via: EZCDAudioConverter 8.2.2.1
#
DISCID=a309ea0c
DTITLE=LEANDRO and LEONARDO - DESCULPE, MAS EU VOU CHORAR [CD 179417-2) CHANTECL
DTITLE=ER
DYEAR=1990
DGENRE=SERTANEJO
TTITLE0=CADE VOCÊ (BY GILMAR SINISTRO)
TTITLE1=TALVES VOCÊ SE LEMBRE (BY GILMAR SINISTRO)
TTITLE2=O CHEIRO DA MAÇÃ (BY GILMAR SINISTRO)
TTITLE3=CORAÇÃO QUER TE ENCONTRAR (BY GILMAR SINISTRO)
TTITLE4=MAIS UMA VEZ SOZINHO (MARCAS DE AMOR) (BY GILMAR SINISTRO)
TTITLE5=PRA NUNCA DIZER ADEUS (BY GILMAR SINISTRO)
TTITLE6=PENSE EM MIM (BY GILMAR SINISTRO)
TTITLE7=SÓ FAZENDO AMOR (BY GILMAR SINISTRO)
TTITLE8=VOCÊ AINDA VAI VOLTAR (BY GILMAR SINISTRO)
TTITLE9=PONTO FRACO (BY GILMAR SINISTRO)
TTITLE10=DESCULPE, MAIS EU VOU CHORAR (BY GILMAR SINISTRO)
TTITLE11=TALISMÃ (BY GILMAR SINISTRO)
EXTD=
EXTT0=
EXTT1=
EXTT2=
EXTT3=
EXTT4=
EXTT5=
EXTT6=
EXTT7=
EXTT8=
EXTT9=
EXTT10=
EXTT11=
PLAYORDER=
